inDegrees=no
num_controls=7
num_derivatives=13
num_iterations=76
num_multipliers=7
num_parameters=0
num_slacks=7
num_states=26
objective=5.637658
objective_accelerations=0.237932
objective_balance=0.063611
objective_effort=0.358045
objective_height=4.911706
objective_ligament=0.066364
solver_duration=662.985773
status=Solve_Succeeded
success=true
DataType=double
version=3
OpenSimVersion=4.4-2022-07-23-0e9fedc
endheader
time	/jointset/ground_pelvis/pelvis_tilt/value	/jointset/ground_pelvis/pelvis_tx/value	/jointset/ground_pelvis/pelvis_ty/value	/jointset/hip_r/hip_flexion_r/value	/jointset/hip_r/hip_adduction_r/value	/jointset/hip_r/hip_rotation_r/value	/jointset/back/lumbar_extension/value	/jointset/patellofemoral_r/patellar_flexion_r/value	/jointset/knee_r/knee_flexion_r/value	/jointset/knee_r/knee_adduction_r/value	/jointset/knee_r/knee_rotation_r/value	/jointset/ankle_r/ankle_angle_r/value	/jointset/subtalar_r/subtalar_angle_r/value	/jointset/ground_pelvis/pelvis_tilt/speed	/jointset/ground_pelvis/pelvis_tx/speed	/jointset/ground_pelvis/pelvis_ty/speed	/jointset/hip_r/hip_flexion_r/speed	/jointset/hip_r/hip_adduction_r/speed	/jointset/hip_r/hip_rotation_r/speed	/jointset/back/lumbar_extension/speed	/jointset/patellofemoral_r/patellar_flexion_r/speed	/jointset/knee_r/knee_flexion_r/speed	/jointset/knee_r/knee_adduction_r/speed	/jointset/knee_r/knee_rotation_r/speed	/jointset/ankle_r/ankle_angle_r/speed	/jointset/subtalar_r/subtalar_angle_r/speed	/forceset/tau_hip_flexion_r	/forceset/tau_hip_adduction_r	/forceset/tau_hip_rotation_r	/forceset/tau_knee_flexion_r	/forceset/tau_ankle_angle_r	/forceset/tau_subtalar_angle_r	/forceset/tau_lumbar_extension	lambda_cid13_p0	lambda_cid14_p0	lambda_cid14_p1	lambda_cid14_p2	lambda_cid14_p3	lambda_cid14_p4	lambda_cid14_p5	/jointset/ground_pelvis/pelvis_tilt/accel	/jointset/ground_pelvis/pelvis_tx/accel	/jointset/ground_pelvis/pelvis_ty/accel	/jointset/hip_r/hip_flexion_r/accel	/jointset/hip_r/hip_adduction_r/accel	/jointset/hip_r/hip_rotation_r/accel	/jointset/back/lumbar_extension/accel	/jointset/patellofemoral_r/patellar_flexion_r/accel	/jointset/knee_r/knee_flexion_r/accel	/jointset/knee_r/knee_adduction_r/accel	/jointset/knee_r/knee_rotation_r/accel	/jointset/ankle_r/ankle_angle_r/accel	/jointset/subtalar_r/subtalar_angle_r/accel	gamma_cid13_p0	gamma_cid14_p0	gamma_cid14_p1	gamma_cid14_p2	gamma_cid14_p3	gamma_cid14_p4	gamma_cid14_p5
1	-0.04836350024474664	0.09452614988006583	0.8265894806878454	0.7209980786979397	-0.2328246074024282	-0.1139658134412688	-0.4360500118893952	0.9215066978228107	0.9215066978224854	-0.007388267613159349	0.1744882297159761	0.4362994104384615	0.110753611894246	-0.002910411679943519	0.00741987506001303	0.01103137195894551	-0.03651390834040837	0.003203894645220674	-0.01207709343727895	0.02380975329706025	-0.04938705779165824	-0.04938705779166765	-0.001383692684585037	-0.0005252973090546188	-0.01086149175068649	0.001409262001470161	-0.112728788175671	0.03417739942811619	0.01338146201150849	-0.380699022619419	-0.09816294990407515	0.001289310570960121	0.188150769346749	-17.36630635376371	-77.2731376349836	-12.07577237796681	1.363731860947913	20.7898855908383	-747.9188238854784	49.84605099128668	0.38828247223958	0.004030867602839308	0.7960397209166679	-2.514259959292355	0.1086402688208506	-0.3595626922163444	1.010190613601563	-3.486997169240206	-3.486997169239539	0.5365778985584718	-0.033299242603181	-1.530758475455483	-0.4194542840145091	1.022405764446925e-09	-1.731171672606756e-09	-3.186185857244966e-09	6.373687334957787e-09	4.038173630305473e-09	-5.567462445255427e-09	-4.096594164546726e-09
1.01	-0.04837403469845258	0.0946005904678376	0.8267394755026417	0.720508167367917	-0.232787323401643	-0.1141044166504111	-0.4357601637772348	0.9208386150027128	0.9208386150021795	-0.007374823480385751	0.1744815864957754	0.436114217487873	0.110746391197946	0.0007736526059546526	0.007473990318627882	0.01896767305598811	-0.0614563184070424	0.004251632247550909	-0.01564796034493468	0.03422582225758967	-0.08425303636098447	-0.08425303636097622	0.00407918110656772	-0.0007995263132559167	-0.02618456797555057	-0.002857853234305735	-0.112870115351333	0.0341111910965549	0.01337173272489173	-0.3803625535105176	-0.09844986486312568	0.001355292834542071	0.1883143639600835	-17.41051795024576	-77.36603090464872	-12.04296605522177	1.335182561628605	20.79730972060738	-748.0512224242864	49.90885381858297	0.3539886046942622	0.006964865132738329	0.7924358390982303	-2.482425401666146	0.1026510828051629	-0.356508864099101	1.067208003016223	-3.489928077033962	-3.489928077032163	0.5521408820137225	-0.02390988424463063	-1.534202816873943	-0.4310074662303514	1.76314830539868e-09	-1.549558236546639e-09	-5.896970231376513e-09	1.126911109462943e-08	4.182339266450309e-09	-8.833434592757428e-09	-7.57248583661968e-09
1.02	-0.04834862446969111	0.09467574481022212	0.8269688354354109	0.719769193162904	-0.2327395999094839	-0.1142788605634492	-0.4353641763822406	0.9198211664218179	0.9198211664208046	-0.007306550857084508	0.1744723159543754	0.4357755696506928	0.1106963658847076	0.004278524808949438	0.007562625982564647	0.02690439555289222	-0.08632648332642717	0.005291792924592345	-0.01924523421494599	0.0450376098476062	-0.1192602099804906	-0.1192602099804668	0.009582005402543083	-0.001050761514021763	-0.04155246903529409	-0.007151661384966214	-0.1130114425274734	0.03404498276475054	0.01336200343607766	-0.3800260844017677	-0.09873677982222777	0.001421275097741141	0.1884779585730537	-17.4779454661391	-77.46899770811305	-12.00593342150548	1.299117422170646	20.81547536285442	-748.3554681285417	50.002469167211	0.3524440556589959	0.01093494866712654	0.7961240008889588	-2.499810929842466	0.1071248837629794	-0.3648440846877393	1.089334339498469	-3.515236179276162	-3.515236179275939	0.5445679995230197	-0.0287004819156508	-1.53972344243154	-0.4247928669916899	2.413095372698143e-09	-1.497248119144404e-09	-1.133809760915628e-08	1.792348285630964e-08	5.006107932488129e-09	-9.849484114857472e-09	-1.543036173745673e-08
1.03	-0.04828907867614411	0.09475197272810405	0.827277507072064	0.7187819788585234	-0.2326815260540629	-0.1144894673872356	-0.4348580390577191	0.9184530947960307	0.9184530947961381	-0.007183114827304486	0.1744606906792652	0.4352830982396948	0.1106032936122635	0.007597641758446193	0.007690195706580408	0.03482411466624676	-0.111092838582724	0.006320265094077615	-0.02288492853208242	0.05626292620315229	-0.1543622039362048	-0.1543622039361862	0.01510673808550082	-0.001266936508301181	-0.05694151652744045	-0.01146506866134418	-0.1130051509811441	0.03389371261526573	0.01335004268104363	-0.3794728963977826	-0.09882084341713085	0.001451488822679392	0.1884902533794042	-17.56865916863919	-77.48550616207302	-11.96777056194301	1.261128612404538	20.78550680379456	-748.2782762937514	50.06483207445944	0.316697285861982	0.01475487277932683	0.7890211252569376	-2.461516652131464	0.1003048640771373	-0.364848303059303	1.150090954307041	-3.508894935518924	-3.50889493552022	0.556655149887878	-0.01696886631205288	-1.538450924411575	-0.4349556306703808	3.062115955572583e-09	-1.446257423361129e-09	-1.680708562983044e-08	2.459580306698996e-08	5.836811323320778e-09	-1.084257524282075e-08	-2.333295176307712e-08
